<svg width="228" height="70" viewBox="0 0 228 70" fill="none" xmlns="http://www.w3.org/2000/svg">
<path d="M9.98635 20V70H0V20H9.98635ZM9.98635 0V10H0V0H9.98635Z" fill="white"/>
<path d="M9.98635 20V70H0V20H9.98635ZM9.98635 0V10H0V0H9.98635Z" fill="white"/>
<path d="M68.4026 50V60H58.4162V50H68.4026ZM38.4435 10V70H35.5475C33.4836 70 31.786 69.3333 30.4545 68C29.1229 66.6667 28.4572 64.9667 28.4572 62.9V10H38.4435ZM58.4162 60V70H38.4435V60H58.4162ZM58.4162 20V30H18.4708V20H58.4162Z" fill="white"/>
<path d="M68.4026 50V60H58.4162V50H68.4026ZM38.4435 10V70H35.5475C33.4836 70 31.786 69.3333 30.4545 68C29.1229 66.6667 28.4572 64.9667 28.4572 62.9V10H38.4435ZM58.4162 60V70H38.4435V60H58.4162ZM58.4162 20V30H18.4708V20H58.4162Z" fill="white"/>
<path d="M113.872 20H123.858V70H113.872V20ZM73.9263 39.5C73.9263 35.2333 75.0248 31.5667 77.2218 28.5C79.4188 25.4333 82.4147 23.1 86.2095 21.5C90.0709 19.8333 94.3317 19 98.992 19C103.586 19 107.78 19.8333 111.575 21.5C115.37 23.1 118.366 25.4333 120.563 28.5C122.76 31.5667 123.858 35.2333 123.858 39.5V49.4C123.858 53.6667 122.76 57.3667 120.563 60.5C118.366 63.5667 115.37 65.9333 111.575 67.6C107.78 69.2 103.586 70 98.992 70C94.3317 70 90.0709 69.2 86.2095 67.6C82.4147 65.9333 79.4188 63.5667 77.2218 60.5C75.0248 57.3667 73.9263 53.6667 73.9263 49.4V39.5ZM83.9126 48C83.9126 52.4667 85.4438 55.6 88.5063 57.4C91.6354 59.1333 95.1306 60 98.992 60C102.72 60 106.116 59.1333 109.178 57.4C112.241 55.6 113.772 52.4667 113.772 48V40.9C113.772 36.4333 112.241 33.3333 109.178 31.6C106.182 29.8667 102.787 29 98.992 29C95.1306 29 91.6354 29.8667 88.5063 31.6C85.4438 33.3333 83.9126 36.4333 83.9126 40.9V48ZM103.885 39.5V49.5H93.899V39.5H103.885Z" fill="white"/>
<path d="M113.872 20H123.858V70H113.872V20ZM73.9263 39.5C73.9263 35.2333 75.0248 31.5667 77.2218 28.5C79.4188 25.4333 82.4147 23.1 86.2095 21.5C90.0709 19.8333 94.3317 19 98.992 19C103.586 19 107.78 19.8333 111.575 21.5C115.37 23.1 118.366 25.4333 120.563 28.5C122.76 31.5667 123.858 35.2333 123.858 39.5V49.4C123.858 53.6667 122.76 57.3667 120.563 60.5C118.366 63.5667 115.37 65.9333 111.575 67.6C107.78 69.2 103.586 70 98.992 70C94.3317 70 90.0709 69.2 86.2095 67.6C82.4147 65.9333 79.4188 63.5667 77.2218 60.5C75.0248 57.3667 73.9263 53.6667 73.9263 49.4V39.5ZM83.9126 48C83.9126 52.4667 85.4438 55.6 88.5063 57.4C91.6354 59.1333 95.1306 60 98.992 60C102.72 60 106.116 59.1333 109.178 57.4C112.241 55.6 113.772 52.4667 113.772 48V40.9C113.772 36.4333 112.241 33.3333 109.178 31.6C106.182 29.8667 102.787 29 98.992 29C95.1306 29 91.6354 29.8667 88.5063 31.6C85.4438 33.3333 83.9126 36.4333 83.9126 40.9V48ZM103.885 39.5V49.5H93.899V39.5H103.885Z" fill="white"/>
<path d="M178.068 42C178.068 37.5333 176.537 34.4333 173.475 32.7C170.412 30.9 167.017 30 163.288 30C159.427 30 155.932 30.9 152.803 32.7C149.74 34.4333 148.209 37.5333 148.209 42V49.1L138.223 50.5V40.6C138.223 36.3333 139.321 32.6667 141.518 29.6C143.715 26.4667 146.711 24.1 150.506 22.5C154.367 20.8333 158.628 20 163.288 20C167.882 20 172.043 20.8333 175.771 22.5C179.566 24.1 182.562 26.4667 184.759 29.6C186.956 32.6667 188.055 36.3333 188.055 40.6V70H178.068V42ZM148.209 39V70H138.223V39H148.209ZM228 60V70H218.014V60H228ZM217.914 42C217.914 37.5333 216.383 34.4333 213.32 32.7C210.258 30.9 206.862 30 203.134 30C199.273 30 195.777 30.9 192.648 32.7C189.519 34.4333 187.955 37.5333 187.955 42V49.1L178.068 50.5V40.6C178.068 36.3333 179.167 32.6667 181.364 29.6C183.561 26.4667 186.557 24.1 190.351 22.5C194.213 20.8333 198.474 20 203.134 20C207.728 20 211.922 20.8333 215.717 22.5C219.512 24.1 222.508 26.4667 224.704 29.6C226.902 32.6667 228 36.3333 228 40.6V60H217.914V42ZM141.318 20V30H131.332V20H141.318Z" fill="white"/>
<path d="M178.068 42C178.068 37.5333 176.537 34.4333 173.475 32.7C170.412 30.9 167.017 30 163.288 30C159.427 30 155.932 30.9 152.803 32.7C149.74 34.4333 148.209 37.5333 148.209 42V49.1L138.223 50.5V40.6C138.223 36.3333 139.321 32.6667 141.518 29.6C143.715 26.4667 146.711 24.1 150.506 22.5C154.367 20.8333 158.628 20 163.288 20C167.882 20 172.043 20.8333 175.771 22.5C179.566 24.1 182.562 26.4667 184.759 29.6C186.956 32.6667 188.055 36.3333 188.055 40.6V70H178.068V42ZM148.209 39V70H138.223V39H148.209ZM228 60V70H218.014V60H228ZM217.914 42C217.914 37.5333 216.383 34.4333 213.32 32.7C210.258 30.9 206.862 30 203.134 30C199.273 30 195.777 30.9 192.648 32.7C189.519 34.4333 187.955 37.5333 187.955 42V49.1L178.068 50.5V40.6C178.068 36.3333 179.167 32.6667 181.364 29.6C183.561 26.4667 186.557 24.1 190.351 22.5C194.213 20.8333 198.474 20 203.134 20C207.728 20 211.922 20.8333 215.717 22.5C219.512 24.1 222.508 26.4667 224.704 29.6C226.902 32.6667 228 36.3333 228 40.6V60H217.914V42ZM141.318 20V30H131.332V20H141.318Z" fill="white"/>
</svg>
